<svg id="Layer_2" data-name="Layer 2" xmlns="http://www.w3.org/2000/svg" viewBox="0 0 400 300"><title>cc</title><circle cx="278.19" cy="42.05" r="25.75" fill="#29abe2" opacity="0.34"/><path d="M205.87,276.1,380.51,172.89c5.56-3.12,10.33-8.25,4.91-11.61l-175.27-101c-2.63-1.63-6.62-2.7-9.3-1.14L17.53,165.52C12,168.75,11,177.77,16.53,181l166.32,94.94A23.22,23.22,0,0,0,205.87,276.1Z" fill="#225870"/><path d="M40.66,168.52c0-9.31,22.55-16.85,50.37-16.85s50.37,7.55,50.37,16.85S118.85,185.37,91,185.37s-50.37-7.55-50.37-16.85" fill="#103542"/><path d="M113.8,109.39a37.5,37.5,0,1,1-37.5,37.5" fill="#f9aa43"/><path d="M76.3,146.89a37.5,37.5,0,0,1,37.5-37.5" fill="#f9aa43"/><path d="M76.3,146.89a37.5,37.5,0,0,0,67.65,22.31,45.11,45.11,0,0,1-38.55-4.87,37.58,37.58,0,0,1-13.71-15.9c-4-8.34-6.12-18.86-4.2-28.25" fill="#e28b23"/><path d="M87.48,120.18A37.38,37.38,0,0,0,76.3,146.89" fill="#e28b23"/><circle cx="135.25" cy="147.66" r="6.16" transform="translate(-64.8 138.88) rotate(-45)" fill="#9b4242"/><circle cx="98.45" cy="147.79" r="4.5" fill="#9b4242"/><circle cx="117.1" cy="157.12" r="3.3" fill="#9b4242"/><path d="M93.41,125.45a3.93,3.93,0,1,1-3.93,3.93,3.93,3.93,0,0,1,3.93-3.93" fill="#9b4242"/><circle cx="114.16" cy="142.88" r="4.04" fill="#9b4242"/><circle cx="114.4" cy="123.52" r="7.25" fill="#9b4242"/><path d="M265.73,28.34a11.53,11.53,0,0,1,2.07-2.24c5.27-4.37,12.41-3.3,17.53.73,12,9.44,6,29.23-7.78,33.71a8.86,8.86,0,0,1-2.08.44c-5.81.44-9.65-7.11-11.09-11.64C262.43,43.24,261.72,34,265.73,28.34Z" fill="#a1ca30"/><path d="M280.83,65.19c1.83.17,12.75.31,16.65,9.52s-.78,47.92-3.12,60.51-5,32.25-4.45,40.24,4.91,19.66,0,21.81-7.77,14.13-18.44,11.67,12-12.29,12.23-18.43-2.33-10.75-1.3-17.51,1.43-22.73,1.24-31.64-8.52-8.29-8.78,2.46-.52,27,.26,32.56,3.64,12.29-2.08,16.28-25,15.66-20.29,6.14,15.09-8,15.87-15.05-2.34-16.28-2.08-28.87,2.34-28.87,3.64-41.47S262,81.77,263.85,73.79,275.7,64.72,280.83,65.19Z" fill="#a1ca30"/><path d="M274.33,80s-16.39,11.7-23.67,12-14.83-26-15.09-31-8.06-2.07-8.06-6.49,5.2,3.38,8.32,1.3-1.3-7.8,2.86-6.5-.52,8.84,2.08,13S247.54,83.38,252,80.52,265.8,69.13,265.8,69.13s11.36-11.56,29.82,1.42c.07,0,8.11,7.9,12.53,15.44s14-20,13.53-23.15-3.6-10.4,0-11.18,2.84,8.84,4.4,7.54,5.72-7.54,7.8-4.68-7.8,8.84-8.32,11.7-5.72,30.17-14.31,32-15.65-16.39-15.65-16.39Z" fill="#a1ca30"/><polyline points="274.33 56.02 277.28 68.17 285.86 68.17 281.31 51.6" fill="#a1ca30"/><path d="M279.29,34.54c-3.17,2.68-4.52,8.3-2,11.68,3.45,4.62,9.35-6.93,9.15-9.68-.23-3.19-3.79-4.14-6.26-2.64A7,7,0,0,0,279.29,34.54Z" fill="#400d20"/><path d="M269.46,44.33s-.63-8.8-3.77-9.05c-2.26-.18-2.18,3.18-2,4.64a7.11,7.11,0,0,0,2.49,4.82C267.38,45.73,269.85,47,269.46,44.33Z" fill="#400d20"/><path d="M272.24,47.58H272a.52.52,0,0,0,0,1h.22A.52.52,0,0,0,272.24,47.58Z" fill="#400d20"/><path d="M274.33,47.44a.52.52,0,0,0,0,1A.52.52,0,0,0,274.33,47.44Z" fill="#400d20"/><path d="M184.81,47.07a13,13,0,0,0-2.34-2.54c-6-4.95-14-3.73-19.82.82-13.57,10.68-6.75,33.06,8.8,38.14a10,10,0,0,0,2.36.5c6.57.49,10.92-8,12.55-13.17C188.55,63.92,189.36,53.51,184.81,47.07Z" fill="#68e1fd"/><path d="M170.28,87.29c-4.14.33-8.17,1.75-10.51,3.82-3.06,2.72-4.48,6.84-5.22,10.86-2,11.12-4.65,22.22-5.07,33.56-.58,15.46,5.81,30.49,4.75,45.84-.45,6.58-.16,14.1,3.88,15.87s11.1,10.68,19.89,8.66-14.49-11.4-14.71-16.47c-.51-12.12,1.76-24.1,4-36,.4-2.14.25-4.91,1.42-6.78.83-1.32,2.72-2.12,4-1.25a3.89,3.89,0,0,1,1.25,1.73c2.32,5.24,1.46,12,1.49,17.65,0,4.7.24,9.57-.42,14.25s-3,10.12,1.71,13.41,20.57,12.91,16.72,5.06-9.12-6.83-9.76-12.65c-.92-8.36,2.49-17.2,3.34-25.62,2.07-20.48,2.05-44.6-2.73-64.73C182.91,88.73,176.47,86.8,170.28,87.29Z" fill="#68e1fd"/><polyline points="175.66 79.91 173.22 89.91 166.16 89.91 169.91 76.27" fill="#68e1fd"/><path d="M169.48,54.08c3.58,3,5.12,9.39,2.26,13.21-3.91,5.23-10.57-7.84-10.35-11,.26-3.61,4.29-4.68,7.08-3A8,8,0,0,1,169.48,54.08Z" fill="#400d20"/><path d="M180.6,65.15s.71-10,4.27-10.24c2.55-.2,2.47,3.6,2.28,5.24a8,8,0,0,1-2.82,5.45C183,66.74,180.15,68.22,180.6,65.15Z" fill="#400d20"/><path d="M177.45,68.82h.25a.58.58,0,0,1,0,1.17h-.25A.58.58,0,0,1,177.45,68.82Z" fill="#400d20"/><path d="M175.09,68.67a.58.58,0,0,1,0,1.17A.58.58,0,0,1,175.09,68.67Z" fill="#400d20"/><path d="M159.78,91.11s-10.07,3-14.61,19.43-3,30.75-4.16,32.28-8.25,6.07-4.29,8.46,6.18-7.88,6.56-4.57,1.83,9,4.38,4.94-.73-23.86,1.79-29.56S159,110.53,159,110.53" fill="#68e1fd"/><path d="M182.58,91.11s13.6,7.81,16.62,16.73.38,22.05,3.4,24.55,10.2,4.55,5.29,7.12-7.18-5.76-8.69-3.3-3.89,7.72-5.16,6.6,1.92-11.68,2-12.63-1-19.93-4-22.34-11.47-5.27-11.47-5.27" fill="#68e1fd"/><path d="M272.13,69.63s-2.5-6.69-.61-7,20.33-1.8,21.27,0-1,8.39-1,8.39" fill="#a1ca30"/><ellipse cx="242.46" cy="138.29" rx="20.35" ry="5" fill="#103542"/><ellipse cx="338.83" cy="165.93" rx="11.48" ry="5.51" fill="#103542"/><ellipse cx="124.28" cy="210.93" rx="17.13" ry="4.74" fill="#103542"/><ellipse cx="211.06" cy="81.54" rx="11.06" ry="2.47" fill="#103542"/><ellipse cx="190.43" cy="253.45" rx="9.88" ry="3.08" fill="#103542"/><ellipse cx="216.88" cy="222.2" rx="21.82" ry="6.54" fill="#103542"/></svg>