<svg xmlns="http://www.w3.org/2000/svg" xmlns:xlink="http://www.w3.org/1999/xlink" viewBox="0 0 400 300"><defs><linearGradient id="linear-gradient" x1="352.38" y1="153.81" x2="326.42" y2="178.83" gradientUnits="userSpaceOnUse"><stop offset="0" stop-color="#78b46a"/><stop offset="0.03" stop-color="#7f3500"/><stop offset="1" stop-color="#fff"/></linearGradient><linearGradient id="linear-gradient-2" x1="65.73" y1="165.63" x2="47.09" y2="184.69" gradientUnits="userSpaceOnUse"><stop offset="0" stop-color="#d46a00"/><stop offset="0.74" stop-color="#f4d8bd"/><stop offset="1" stop-color="#fff"/></linearGradient></defs><title>cc</title><g style="isolation:isolate"><g id="Layer_2" data-name="Layer 2"><path d="M207.71,281.53,382.36,178.32c5.56-3.12,10.33-8.25,4.91-11.61L212,65.69c-2.63-1.63-6.62-2.7-9.3-1.14L19.37,170.95c-5.56,3.23-6.56,12.25-1,15.48l166.32,94.94A23.22,23.22,0,0,0,207.71,281.53Z" fill="#9c6fce"/><ellipse cx="198.19" cy="187.49" rx="95.37" ry="38.55" fill="#1b661e"/><ellipse cx="202.63" cy="201.13" rx="53.99" ry="11.31" fill="#400d20"/><path d="M140.4,62.36l-36.65,112.7c-1.57,4.82-2.13,13-.09,17.61,6.69,15.22,34.64,34.65,101.53,33.42,62.5-1.15,88.36-24.12,88.54-36.94.06-4.19.23-8.44-.41-10.64L258,57.21" fill="#ffcf49" opacity="0.51"/><ellipse cx="201.04" cy="64" rx="62.11" ry="32.61" fill="#21214f"/><ellipse cx="201.04" cy="59.93" rx="62.11" ry="32.61" fill="#3a3a6c"/><circle cx="152.07" cy="54.25" r="3.43" fill="#ffcf49"/><circle cx="249.56" cy="54.25" r="3.43" fill="#ffcf49"/><circle cx="158.94" cy="70.29" r="3.43" fill="#ffcf49"/><circle cx="173.99" cy="77.76" r="3.43" fill="#ffcf49"/><circle cx="197.61" cy="82.57" r="3.43" fill="#ffcf49"/><circle cx="220.21" cy="79.13" r="3.43" fill="#ffcf49"/><circle cx="238.1" cy="68.44" r="3.43" fill="#ffcf49"/><circle cx="238.1" cy="41.76" r="3.43" fill="#ffcf49"/><circle cx="164.89" cy="41.76" r="3.43" fill="#ffcf49"/><path d="M163.58,55.68S164.5,17.5,201,17.48c37.38,0,36.65,37,36.65,37s-1.63,19.89-37.42,19.89S163.58,55.68,163.58,55.68Z" fill="#71e3d1"/><path d="M223.84,23.88a57.24,57.24,0,0,1,.94,15.93,25.65,25.65,0,0,1-8.15,16.59c-5.58,5-13,8.33-20.29,10.1a59.05,59.05,0,0,1-25.2.44c5.19,3.94,14.13,7.4,29.54,7.4,35.79,0,37.42-19.89,37.42-19.89S238.49,34.45,223.84,23.88Z" fill="#5ad3c2"/><path d="M189.79,25.35a3,3,0,0,0-4-1.06,22.28,22.28,0,0,0-11.62,13.82c-1.07,3.65,4.62,5.21,5.69,1.57a16.51,16.51,0,0,1,8.91-10.3A3,3,0,0,0,189.79,25.35Z" fill="#99ffeb"/><path d="M160.53,136.08a6.58,6.58,0,0,0-1.63.61c-3.44,1.86-4.39,5.86-3.35,9.43,2.43,8.36,14.19,9.39,19.5,3.08a5.05,5.05,0,0,0,.68-1c1.47-3-1.7-6.62-3.79-8.35C169.12,137.52,164.4,135.18,160.53,136.08Z" fill="#68e1fd"/><path d="M160.92,144.58c2.09-1.11,5.36-.62,6.61,1.43,1.71,2.81-5.66,3.47-7.07,2.77-1.64-.8-1.38-2.89-.06-3.88A4,4,0,0,1,160.92,144.58Z" fill="#400d20"/><path d="M168.2,141.47s-4.52-2.21-4-3.93c.39-1.23,2.15-.47,2.88-.08a4.06,4.06,0,0,1,2,2.35C169.38,140.67,169.55,142.26,168.2,141.47Z" fill="#400d20"/><path d="M169.32,143.63l0-.12a.29.29,0,0,1,.55.22l0,.12A.29.29,0,0,1,169.32,143.63Z" fill="#400d20"/><path d="M168.8,144.71a.29.29,0,0,1,.55.22A.29.29,0,0,1,168.8,144.71Z" fill="#400d20"/><path d="M181.85,156.13s-3.59,1.8-11.16.32-13.16-1.56-17.09-8.3-5.07-12.53-7.92-11.82,2.87,5.16,1.1,6.14-7-4-7.65-.8,3.9,2.17,7,5.63,9.43,11.95,16.58,15.86,18.24,3,21.06,1.27,5.85-12.6,2.55-19.4-9.34-10.34-10-19.88,1.35-15.52-1-16.47-.45,2.78-2.3,4.44-2.31-4.09-4.76-2.28.12,4.8.12,4.8c2.45,4,3.86,2.51,3.63,6.35s.78,13.77,3.56,19.13S184.11,152,181.85,156.13Z" fill="#68e1fd"/><path d="M183.63,143.55c.84.51,11.73,12.87,17.5,10.76s6.69-7.19,11.74-13.93,5.59-6.62,12.2-6.42,19.41-7.26,20.81-15.94,2.81-13.78,4.73-13,3.1,8,2.12,13-1,9-2.55,10.9-2.83,1.2-7.13,3.75-7.78,6.44-16.55,8.83-12,12.39-12.42,15.65,9.3-5.85,14,1.73,3.32,17.58,10.55,19,11.16,1.48,14.94,1.08,3.49,1.5-2,4-10.57.59-14,1.18-10.1-10.2-10.1-10.2c-3.07-7.05-1.35-13.07-10-8.26s-19,10.07-37.14-1.46" fill="#68e1fd"/><path d="M171.55,150.09c1.44-.34,5.26,10.41,7.78,8.23s5.15-5.55,4.27-8.12c0,0-4.94.92-7.87-2" fill="#68e1fd"/><path d="M308.3,174.85l45.86-13.68,5.46,7.1L334.84,190Z" opacity="0.46" fill="url(#linear-gradient)" style="mix-blend-mode:multiply"/><path d="M358.75,170.1v-33h-7.19v33.29A9.61,9.61,0,0,0,358.75,170.1Z" fill="#a83f1e"/><path d="M355.89,137.19V171a7.23,7.23,0,0,0,2.86-.8v-33Z" fill="#7f2b14"/><path d="M365.15,140.18c4.47-.22,10.19-1.82,8.51-6.8-1-2.94-4-5.54-6-7.87s-1.52-3.9-3.69-6.18c1.85.08,4.54-.27,5-2.11.4-1.61-8.23-11.45-12-15.45a2.39,2.39,0,0,0-3.24-.24c-4.45,3.54-15.81,13-14.23,15.69,1,1.64,2.89,2.21,4.62,2.36-4.09,4.1-8.75,9.22-9.22,14.68-.41,4.73,4.43,5.37,8.94,5.12-3.12,3.79-11.58,14.58-9.65,17.86,1,1.73,4.3,2.3,6.24,2.69a62,62,0,0,0,12.8,1.23A39.42,39.42,0,0,0,366,159.25a17.82,17.82,0,0,0,6.21-3.41c2-1.87.88-3.85-.41-5.73C369.56,146.83,367.36,143.5,365.15,140.18Z" fill="#52af45"/><path d="M364,119.34s-5.44-.35-9.23-.25L374,134.86s.51-1.83-2.88-5.59A77.21,77.21,0,0,1,364,119.34Z" fill="#0d5b23"/><path d="M365.15,140.18H354l18.23,15.66a2.78,2.78,0,0,0,.8-3.6C371.81,150.11,365.15,140.18,365.15,140.18Z" fill="#0d5b23"/><path d="M72,171.94l-7.31-3.06L33.74,185.16l15.35,9.89C55.53,190.52,65.9,177,72,171.94Z" fill="url(#linear-gradient-2)" style="mix-blend-mode:multiply"/><path d="M67.38,173.29c1.85.42,3.16-.42,4.59-1.35V120.45a1.15,1.15,0,0,0-1.15-1.15h-6a1.15,1.15,0,0,0-1.15,1.15V171A6,6,0,0,0,67.38,173.29Z" fill="#bc532a"/><path d="M88.27,130.53c-1.91-8.28-10.39-44.79-25.43-34.06-7.7,5.5-9.88,14.09-13,22.49-2.55,7-4.67,14.28-4.79,21.75-.24,15.19,15.21,17,27,17,6.82,0,16.54-4.06,18.13-11.46,1-4.46-.68-9.73-1.63-14.1Q88.46,131.33,88.27,130.53Z" fill="#adce46"/><path d="M89,132.14q-.18-.81-.36-1.61c-1.69-7.33-8.52-36.72-20.47-36,3.55,15.49,8.78,31.86,6,47.72a36.26,36.26,0,0,1-6.32,15.35c1.59.08,3.15.1,4.66.1,6.82,0,16.54-4.06,18.13-11.46C91.58,141.77,89.95,136.51,89,132.14Z" fill="#6db526"/></g></g></svg>