<svg xmlns="http://www.w3.org/2000/svg" xmlns:xlink="http://www.w3.org/1999/xlink" viewBox="0 0 400 300"><defs><linearGradient id="linear-gradient" x1="258.86" y1="208.82" x2="267.26" y2="199.63" gradientUnits="userSpaceOnUse"><stop offset="0" stop-color="#fff" stop-opacity="0"/><stop offset="1"/></linearGradient><linearGradient id="linear-gradient-2" x1="269.62" y1="216.77" x2="278.01" y2="207.59" xlink:href="#linear-gradient"/><linearGradient id="linear-gradient-3" x1="161.4" y1="186.52" x2="179.29" y2="166.95" xlink:href="#linear-gradient"/><linearGradient id="linear-gradient-4" x1="80.72" y1="206.29" x2="89.11" y2="197.1" xlink:href="#linear-gradient"/><linearGradient id="linear-gradient-5" x1="117.55" y1="208.29" x2="125.94" y2="199.11" xlink:href="#linear-gradient"/><linearGradient id="linear-gradient-6" x1="181.42" y1="260.12" x2="191.46" y2="249.13" xlink:href="#linear-gradient"/></defs><title>pp</title><g style="isolation:isolate"><g id="Layer_2" data-name="Layer 2"><path d="M205.63,291.25l152-89.83c4.84-2.72,9-7.18,4.27-10.1L209.35,103.4c-2.29-1.42-5.76-2.35-8.09-1L41.7,195c-4.84,2.81-5.71,10.66-.87,13.47l144.76,82.64A20.21,20.21,0,0,0,205.63,291.25Z" fill="#6e6fe5"/><polygon points="174.14 79.67 207.04 99.2 242.51 78.39 208.32 59.26 174.14 79.67" fill="#68e1fd"/><polygon points="242.51 78.39 242.51 153.82 208.32 173.5 207.04 99.2 242.51 78.39" fill="#68e1fd"/><polygon points="174.14 79.67 207.04 99.2 242.51 78.39 208.32 59.26 174.14 79.67" fill="#606060" opacity="0.11"/><polygon points="242.51 78.39 242.51 153.82 208.32 173.5 207.04 99.2 242.51 78.39" fill="#606060" opacity="0.52"/><polygon points="174.14 79.67 174.14 154.76 208.32 173.5 207.04 99.2 174.14 79.67" fill="#68e1fd"/><ellipse cx="188.56" cy="108.89" rx="7.94" ry="13.41" transform="translate(-28.71 94.55) rotate(-26.23)" fill="#d740a7"/><ellipse cx="188.56" cy="109.2" rx="5.45" ry="8.91" transform="translate(-28.85 94.58) rotate(-26.23)" fill="#6210bc"/><ellipse cx="190.23" cy="141.47" rx="11.08" ry="18.71" transform="translate(-42.94 98.64) rotate(-26.23)" fill="#d740a7"/><ellipse cx="191" cy="139.36" rx="6.85" ry="9.46" transform="translate(-41.92 98.76) rotate(-26.23)" fill="#6210bc"/><polygon points="232.65 198.22 275.96 222.57 324.96 194.18 282.52 169.63 232.65 198.22" fill="#68e1fd"/><path d="M273.6,193.87c-7.51,4.38-14.92,8.93-22.45,13.28l4.79,2.63L278.8,197.1Z" opacity="0.5" fill="url(#linear-gradient)" style="mix-blend-mode:multiply"/><path d="M284.36,201.83c-7.51,4.38-14.92,8.93-22.45,13.28l4.79,2.63,22.86-12.68Z" opacity="0.5" fill="url(#linear-gradient-2)" style="mix-blend-mode:multiply"/><path d="M175,151.43l-22.1,12.91c-.5,1.62-17.47,8.51-17.75,10.16l32.49,21.9,45.85-26.07Z" opacity="0.5" fill="url(#linear-gradient-3)" style="mix-blend-mode:multiply"/><polygon points="149.98 239.25 193.3 263.6 242.3 235.21 199.86 210.66 149.98 239.25" fill="#68e1fd"/><polygon points="62.92 198.51 106.24 222.87 155.24 194.48 112.8 169.93 62.92 198.51" fill="#68e1fd"/><path d="M267,56.62s3.15-6.42,2.65-7-2.3,2-2.3,2,0-6.58-.56-6.69S266,49,266,49s-.62-4.89-1.57-4.89,0,4.67,0,4.67-1.69-2.92-2.25-2.7S263,50,263,50s-1.57-1.32-1.8-1,1.63,4.92,2.81,6a11.92,11.92,0,0,1,2,2.51" fill="#ffe5d0"/><path d="M279.68,95.15s-5.55-15.51-7.56-21.32S269,55.38,269,55.38s-6-.34-6.2,1.07.6,37.92,12.84,48.76" fill="#483d27"/><path d="M269.28,147A124.76,124.76,0,0,0,267,163.14c-.24,6.42,6.88,25,6.88,25l5-2.63s-5-17.25-4-20.37,5.87-15.6,4.77-18.17S269.28,147,269.28,147Z" fill="#ffe5d0"/><path d="M282.05,148a124.76,124.76,0,0,0-2.24,16.15c-.24,6.42,6.74,23.31,6.74,23.31l5.14-.92s-5-17.25-4-20.37,5.87-15.6,4.77-18.17S282.05,148,282.05,148Z" fill="#ffe5d0"/><path d="M284.72,88.36c.72.77,6.72.73,9.12,4.21s11.38,14.28,11.51,19.5-13.24,13.34-14,12.14-1.74-4.12-.8-5.05,6.15-5.95,6.15-5.95l-5.76-7.53s-4.44,10.07-1.1,17.32,6.37,16.1,2.58,32.81c-1.06,4.68-24.46-.27-25.27-8.15s5.75-20.19,5.61-25.53a77.46,77.46,0,0,0-2.67-18c-1.87-7.35,5.21-15.71,5.21-15.71Z" fill="#483d27"/><path d="M273.34,187s-.18,3.85-2.2,5.69-7.89,3.3-7.16,5.69,3.85,2.2,6.24,1.1,6-5.33,6-5.33a14.85,14.85,0,0,1,.83,3.86l2.36-.73L278.76,185S277.74,187.41,273.34,187Z" fill="#483d27"/><path d="M286.55,187.43s-.17,4.53-.36,7.07-3.74,9.16-2.47,10.43,3.94,1.14,5.6,0,2.58-8.27,3.26-9.54-.89-8.88-.89-8.88Z" fill="#483d27"/><path d="M290.16,120.38c.49.73-2.49-2.77-3.1-2.33s1.31,2.43,1.31,2.43-4.62,6-2.53,7.27,5.68-3.54,5.68-3.54" fill="#ffe5d0"/><path d="M277.74,88.29s-4,7.64-2.91,8.5,7.73,2.49,8.6,1.56,1.29-10,1.29-10" fill="#ffe5d0"/><path d="M275.52,78.95s-2.73,7.87-.69,9.09S282,88,282,88" fill="#40424e"/><path d="M274.89,77.28s-1,11.14,4.52,12.11,6.62-10.5,5.49-12.11S276.35,74.7,274.89,77.28Z" fill="#ffe5d0"/><path d="M282,85.6a5.72,5.72,0,0,0,.57,4.19,11.73,11.73,0,0,0,6.85-.4c2.94-7.14,0-18-7.22-18.85s-8.28,3.53-8.69,6.11,1.35,2.35,2,2.31C281.62,78.54,283.25,81.53,282,85.6Z" fill="#e84c1c"/><path d="M129,130.5c-.63.86-.66,4.64,0,5.05s1.41-.33,1.41-.33.41,2.32,1.08,2.32,5.05-2.15,4.8-4.06-2.56-5.78-2.56-5.78" fill="#ffbb8f"/><path d="M76.85,59.81s-.18-4.77-.78-4.9-.93,1.59-1,1.39-1.06-4.89-2-5,0,4.24,0,4.24-3.44.66-3.64,2,4.23,4.83,4.23,4.83" fill="#ffbb8f"/><path d="M92.67,186.29s-.21,3.93-2.33,5.41-4.88,1.91-6,4.14a4,4,0,0,0,.53,4.24,12.76,12.76,0,0,0,7.85-1.49c4.24-2.23,6.26-3.5,7.74-3.82s.08-9.08.08-9.08Z" fill="#341a0c"/><path d="M98.26,88.79s-3.94-2.36-5.77-5S76.85,59.81,76.85,59.81s-3.52,0-4.51,1.55S84.17,91.93,88.11,94.88s0,35.21,2,38.17,17.14,5.93,21.09-.69l3-18.18s13.24,14.09,14.23,17.18c0,0,4.08-.14,5.35-3.66s-19.16-31.55-22.68-34.93S98.26,88.79,98.26,88.79Z" fill="#eb4b1f"/><path d="M94.79,82.29S90,80.19,91.26,77.06s5.86-5.6,12-2.87,5.21,5.73,4.3,8.86-2.43,5.75-3.39,5.73-3.67-3.26-3.67-3.26" fill="#341a0c"/><path d="M95.17,79.41c-.75-.26-.78,12.64,3.78,12.25s5-5.21,5-5.21S107,84.62,106,83.32s-3.13,0-3.13,0l-.78-3.91S100.12,81.1,95.17,79.41Z" fill="#ffbb8f"/><path d="M90.09,133.05S81.71,153.22,83,159.25s9.25,30.11,9.25,30.11,8.53-1.08,8.24-3.66S95.22,160.17,96,157.4c1.08-3.64,4.06-13.86,4.45-11.71s3.81,13.07,6.63,16.51,24,20.05,24,20.05,6.24-4.52,5.59-6.45-15.71-12.37-18.28-18.49c-1.88-4.47-7.31-24.95-7.31-24.95" fill="#8f9780"/><path d="M131.17,182.26a48.83,48.83,0,0,1,1.49,5.41c.32,1.91-1,5.52-2,6.26s-.85,2.23.53,3.18,5.52.42,7-1.06.32-4.27,1.49-6.7,4.25-7.07-3.07-12.44" fill="#341a0c"/><path d="M305.5,50.44s1.5,10.19-7.58,11.16c0,0,7,1.72,7.58,7.58,0,0,1.57-6.87,7.3-7.58C312.79,61.6,306,62.86,305.5,50.44Z" fill="#f4ba14"/><path d="M325.1,74.39s1.5,10.19-7.58,11.16c0,0,7,1.72,7.58,7.58,0,0,1.57-6.87,7.3-7.58C332.4,85.55,325.62,86.81,325.1,74.39Z" fill="#f4ba14"/><path d="M134,59.81S135.45,70,126.37,71c0,0,7,1.72,7.58,7.58,0,0,1.57-6.87,7.3-7.58C141.25,71,134.47,72.23,134,59.81Z" fill="#f4ba14"/><path d="M152.6,41.48s1.5,10.19-7.58,11.16c0,0,7,1.72,7.58,7.58,0,0,1.57-6.87,7.3-7.58C159.9,52.64,153.12,53.89,152.6,41.48Z" fill="#f4ba14"/><path d="M95.46,191.34c-7.51,4.38-14.92,8.93-22.45,13.28l4.79,2.63,22.86-12.68Z" opacity="0.5" fill="url(#linear-gradient-4)" style="mix-blend-mode:multiply"/><path d="M132.29,193.35c-7.51,4.38-14.92,8.93-22.45,13.28l4.79,2.63,22.86-12.68Z" opacity="0.5" fill="url(#linear-gradient-5)" style="mix-blend-mode:multiply"/><path d="M187.46,238.28c-7.51,4.38-14.92,8.93-22.45,13.28l25.77,13.62,21.67-12.51Z" opacity="0.5" fill="url(#linear-gradient-6)" style="mix-blend-mode:multiply"/><polyline points="200.8 133.12 200.08 137.13 194.07 138.06 193.87 131.18" fill="#fbe8da"/><path d="M231.75,125.08s-3-4.76-2.42-5.12,2.42,1.62,2.42,1.62.54-6.29,1.35-6.55.54,5.57.54,5.57,1.26-5.22,2.16-5.57,0,5,0,5,1.26-3.68,2.07-3.68-1.38,5.12-1.38,5.12S238,120,238.57,120s-3.68,6.3-3.68,6.3" fill="#fbe8da"/><path d="M158.81,128.35s3.18-5.19,2.08-5.6-2.74,1.75-2.74,1.75-.27-7.09-1.23-7.22-.82,6.16-.82,6.16-1-5.76-1.92-6.16,0,6.16,0,6.16-3.15-4.52-3.83-3.83,2.11,6.16,2.11,6.16-1.78-2-2.22-1.27,4.35,7,4.35,7l5.35-3.26" fill="#fbe8da"/><path d="M211.74,240.32s2,7.45,1.74,10.14-2.54,3.43-4.95,2.8-3.76-3.7-7.54-4.31-8.83-5.36-6.57-8.77,15.28,1.58,15.28,1.58" fill="#2d464b"/><path d="M210.38,170.65c-.28.42,2.31,12.23,0,20.7s-6.67,15.06-6.59,18.14,8,30.84,8,30.84-5.94,4.67-9,.82S192.24,218.59,192,214.07s4.58-37.77,4.58-37.77" fill="#85b23b"/><path d="M195.4,229.26s4.43,4.72,6.08,6.86,1.87,4.2-.3,5.41-5.27-.08-8.43,2.1-10.09,2.23-10.81-1.79,12.13-9.43,12.13-9.43" fill="#2d464b"/><path d="M187.34,216.39c1.43,4.49,10.78,13.66,11.16,16.79-1.85,2.65-5.73,4.54-8.56,3.43-6.15-6.34-17.64-19-17.18-24.54.62-7.6,11.51-31,11.51-31s17.47-6.37,15.82,5.27S185.9,211.87,187.34,216.39Z" fill="#85b23b"/><path d="M188.18,122.85s1.07,13.07,3.63,12.45,7-2.93,6.25-5.47S188.18,122.85,188.18,122.85Z" fill="#fbe8da"/><path d="M190.88,124.84s-5.26-.12-4.78-2.87,3.47-3.11,3.47-3.11,0-3.83,1.91-4.19,4.54,2,4.54,2a8.34,8.34,0,0,1,4.19-2.07c2.39-.32,3.95,3.39,3.95,3.39s3,1.08,3.35,3.95-3,2.87-3,2.87,2.51.48,2,2.51a5.07,5.07,0,0,1-2,3,5.06,5.06,0,0,1-4.54,3.47c-3.83.48-6-.72-6.1-2.63s-.6-5-2-2.75Z" fill="#fcbf17"/><path d="M230.53,124.49s-5.54,16.3-10.77,15.07-14.15-4.56-16.61-4.43-17.69,2.1-19.92,4.5-15,5.16-18.07,3.32-5.23-14.7-5.23-14.7-6.46.39-7.38,1.93,4.61,16.76,9.69,22.15,21-1.85,21-1.85l-1.61,35.83s22.84,5,29.61-7l-.08-30.52s9.84.77,14.15-1.54,12.15-20.3,11.07-21.53S230.53,124.49,230.53,124.49Z" fill="#563f2f"/></g></g></svg>